
	<svg xmlns="http://www.w3.org/2000/svg" xmlns:xlink="http://www.w3.org/1999/xlink" version="1.1" width="128" height="128" viewBox="0 0 100 100">


		<defs>
			<linearGradient id="Gradient_2" gradientUnits="userSpaceOnUse" x1="10" y1="82" x2="78" y2="82" spreadMethod="pad">
<stop offset="0%" stop-color="#000000" stop-opacity="0.3"/>
<stop offset="100%" stop-color="#000000" stop-opacity="0.1"/>
</linearGradient><linearGradient id="Gradient_3" gradientUnits="userSpaceOnUse" x1="0" y1="60" x2="96" y2="60" spreadMethod="pad">
<stop offset="0%" stop-color="#000000" stop-opacity="0.3"/>
<stop offset="100%" stop-color="#000000" stop-opacity="0.1"/>
</linearGradient><linearGradient id="Gradient_4" gradientUnits="userSpaceOnUse" x1="6" y1="22" x2="92" y2="22" spreadMethod="pad">
<stop offset="0%" stop-color="#000000" stop-opacity="0.3"/>
<stop offset="100%" stop-color="#000000" stop-opacity="0.1"/>
</linearGradient><g id="background">
<path fill="url(#background-gradient)" stroke="none" d=" M 98.1 41.35 L 81.05 11.9 Q 79.1 8.55 75 6.2 70.85 3.8 67.05 3.8 L 32.95 3.8 Q 29.15 3.8 25 6.2 20.9 8.55 18.95 11.9 L 1.9 41.35 Q 0 44.75 0 49.45 0 54.2 1.9 57.6 L 18.95 87.05 Q 20.9 90.4 25 92.75 29.15 95.15 32.95 95.15 L 67.05 95.15 Q 70.85 95.15 75 92.75 79.1 90.4 81.05 87.05 L 98.1 57.6 Q 100 54.2 100 49.45 100 44.75 98.1 41.35 Z"/>
</g><g id="middle-1">
<path fill="url(#Gradient_2)" stroke="none" d=" M 9.85 71.3 L 17.4 84.35 Q 22 82.8 28.15 83.15 35.65 83.65 42.35 86.9 45.05 88.15 48.7 90.55 50.75 91.85 55.5 95.15 L 67.05 95.15 Q 69.7 95.15 72.65 93.95 75.55 92.75 77.85 90.8 L 77.15 90.6 Q 71.7 89.2 64.4 86.1 60.05 84.3 51.2 80.05 36.75 73.15 30.05 71.1 19 67.8 11.6 70.55 10.8 70.8 9.85 71.3 Z"/>

<path fill="url(#Gradient_3)" stroke="none" d=" M 87.15 76.5 L 96.35 60.55 Q 88.65 60.65 80.7 58.5 70.25 55.8 60.35 49.45 50.2 42.95 34.8 42.55 19.65 42.15 7.3 47.8 3.55 49.55 0.1 51.7 0.5 55.1 1.9 57.6 L 4.3 61.7 Q 13.65 57.45 24.3 58.3 36.15 59.35 46.6 66.65 56.7 73.6 67.6 75.8 76.35 77.6 87.15 76.5 Z"/>

<path fill="url(#Gradient_4)" stroke="none" d=" M 92.35 31.5 L 81.05 11.9 Q 80.25 10.5 79 9.25 69.85 8.85 60.55 10.7 54.9 11.8 44.7 14.95 35.4 17.7 30.45 18.7 22.25 20.4 14.2 20.15 L 5.85 34.6 Q 11.15 35.15 16.05 35.15 24.9 35.15 34 33.25 39.4 32.1 49 29.2 58.9 26.2 68.5 26.65 78.5 27.1 92.35 31.5 Z"/>
</g><mask id="mask">
<path fill="#FFFFFF" stroke="none" d=" M 98.1 41.4 L 81.05 11.9 Q 79.1 8.6 75 6.2 70.85 3.85 67.05 3.85 L 32.95 3.85 Q 29.15 3.85 25 6.2 20.9 8.6 18.95 11.9 L 1.9 41.4 Q 0 44.75 0 49.5 0 54.25 1.9 57.6 L 18.95 87.1 Q 20.9 90.45 25 92.8 29.15 95.2 32.95 95.2 L 67.05 95.2 Q 70.85 95.2 75 92.8 79.1 90.45 81.05 87.1 L 98.1 57.6 Q 100 54.25 100 49.5 100 44.75 98.1 41.4 Z"/>
</mask>
			
	<linearGradient id="background-gradient" x1="0" y1="0" y2="1" x2="0" gradientTransform="rotate(270 0.5 0.5)">
		<stop stop-color="#0D3CFB" offset="0%"/>
		<stop stop-color="#2CFEEC" offset="100%"/>
	</linearGradient>

			
			
			<g transform="scale(0.638879714438237) translate(-69.5999984741211 -60.7380256652832)" id="picture"><path d="M132.4 166.6c0 1.4-.4 3.4-1.2 5.8-2 5.6-6 10.2-12 13.8-5.6 3.2-11.6 4.8-18 4.8-11 0-19.2-4.4-24.6-13.4-4.6-7.4-7-16.8-7-28.4 0-9.8 1.4-19.2 4.4-28 3.2-10.2 8.2-18.2 14.6-23.8C93.2 93.2 98 91 103 91c7.2 0 12.6 3.4 16.2 10.4 2.8 5.4 4.2 12 4.2 20 0 4-.6 8.4-1.8 13.6-1.6 6.8-3.6 10-6.2 10-2 0-3.4-1-4.2-3 .6-.4 1.4-1 2.6-2 2.4-2.4 3.6-8 3.6-17 0-5.6-1-10.8-3-15.8-2.6-6.6-6.2-9.8-10.8-9.8-3.6 0-7.4 2.2-11.4 6.6-3 3.2-5.6 7-7.8 11.4-4.8 9.8-7.2 22-7.2 36.6 0 9.6 1.6 17.2 5 23 4.2 7 10.8 10.6 19.6 10.6 4.8 0 9.2-1.2 13.4-3.8 4-2.6 7-6 9.2-10.2.4-1.4 1.2-3.4 2.4-5.8.8-1.2 1.6-1.8 2.8-1.8 1.8-.4 2.8.6 2.8 2.6zm93.724-46.067c0 11.178-1.597 23.353-4.591 36.527-4.192 18.164-9.98 27.345-17.166 27.345-5.19 0-8.982-3.393-11.377-10.379-1.797-4.59-2.994-11.577-3.793-21.158-.998-10.18-1.596-15.968-2.195-17.764-.2 1.197-2.196 9.58-5.589 25.35C177.621 178.217 173.229 187 168.04 187c-2.795 0-5.39-1.397-7.984-3.992-3.793-3.992-6.587-16.966-8.384-38.523-1.197-14.57-1.796-29.54-1.796-44.51 0-5.79 2.196-8.584 6.587-8.584 1.597 0 3.593.599 5.788 1.797v3.792c-1.397.2-2.395.798-2.994 1.597-.598.798-.798 2.395-.998 4.59v6.588l.2 5.389c0 11.776.599 23.553 1.796 35.33 1.797 17.364 4.392 25.947 7.984 25.947 1.797 0 3.793-3.593 6.188-10.778 1.597-4.99 2.994-9.581 3.792-13.773 3.394-16.367 5.19-29.94 5.19-40.718 0-.6.599-1.397 1.796-2.395 1.198-.998 2.196-1.398 2.795-1.398 1.996 0 3.792.799 5.788 2.196 1.797 1.397 2.795 3.194 2.994 4.99-1.796 2.794-2.595 6.986-2.595 12.974 0 8.982.6 18.363 1.797 27.944 1.796 13.773 4.59 20.559 8.383 20.559 5.19 0 9.182-8.383 12.375-24.95 2.196-12.176 3.394-22.755 3.394-32.136 0-5.19-.4-9.381-1.398-12.375-.798-1.996-1.596-3.992-2.195-5.988-.998-2.595-1.397-4.591-1.397-5.988 0-4.99 1.197-7.585 3.792-7.585 2.595 0 4.59 4.79 5.988 14.371.599 6.787 1.198 12.974 1.198 19.162z"/></g>
			
	<linearGradient id="picture-gradient" x1="0" y1="0" y2="1" x2="0" >
		<stop stop-color="#ffffff" offset="0%"/>
		<stop stop-color="#e5eff9" offset="100%"/>
	</linearGradient>

		</defs>

		

			<use xlink:href="#background" fill="url(#background-gradient)" />

		<use xlink:href="#middle-1" />

			<g mask="url(#mask)">
				<g transform="
				        translate(
                                50 50
)
                            translate(0 0)  scale(0.5)  
                            translate(
                                -50 -50
)">
						<use xlink:href="#picture" fill="url(#picture-gradient)"  />
				</g>
			</g>

		



	</svg>
